# xmcd CD database file
#
# Track frame offsets:
#	150
#	16225
#	35685
#	56525
#	78300
#	97987
#	118612
#	139862
#	160880
#	182742
#	200707
#	222625
#	241972
#	256125
#
# Disc length: 3699 seconds
#
# Revision: 0
# Processed by: cddbd v1.5.1PL0 Copyright (c) Steve Scherf et al.
# Submitted via: CDex 1.51
#
DISCID=c20e710e
DTITLE=Luis Armstrong and his all stars - AN EVENING WITH
DYEAR=1988
DGENRE=Jazz
TTITLE0=SLEEPY TIME DOWN SOUTH (Rene, Rene, Muse)
TTITLE1=INDIANA (MacDonald, Hanley)
TTITLE2=SOMEDAY (Armstrong)
TTITLE3=TIN ROOF BLUES (Roppolo, Mares, Brunies, Pollack, Stitzel, Melrose)
TTITLE4=BUCKET'S GOT A HOLE IN IT (C.Williams)
TTITLE5=PERDIDO (Tizol, Lengsfelder, Drake)
TTITLE6=THAT'S MAY DESIRE (Kresa, Loveday)
TTITLE7=THE GYPSY (Smith)
TTITLE8=ROYAL GARDEN BLUES (Williams, Williams)
TTITLE9=BLUEBERRY HILL (Lewis, Rose, Stock)
TTITLE10=WAY DOWN YONDER IN NEW ORLEANS (Creamer, Layton)
TTITLE11=BASIN STREET BLUES (Williams)
TTITLE12=BABY WON'T YOU PLEASE COME HOME (Williams, Warfield)
TTITLE13=ROCKIN' CHAIR (Carmichael)
EXTD=YEAR: 1988
EXTT0=
EXTT1=
EXTT2=
EXTT3=
EXTT4=
EXTT5=
EXTT6=
EXTT7=
EXTT8=
EXTT9=
EXTT10=
EXTT11=
EXTT12=
EXTT13=
PLAYORDER=
